<svg width="32" height="32" viewBox="0 0 32 32" fill="none" xmlns="http://www.w3.org/2000/svg">
<path d="M30.5 7.53906H20.5V3.125C20.5 2.43359 19.9414 1.875 19.25 1.875H3.3125V0.3125C3.3125 0.140625 3.17188 0 3 0H0.8125C0.640625 0 0.5 0.140625 0.5 0.3125V30.9375C0.5 31.1094 0.640625 31.25 0.8125 31.25H3C3.17188 31.25 3.3125 31.1094 3.3125 30.9375V20.625H13V25.0391C13 25.7305 13.5586 26.2891 14.25 26.2891H30.5C31.1914 26.2891 31.75 25.7305 31.75 25.0391V8.78906C31.75 8.09766 31.1914 7.53906 30.5 7.53906Z" fill="#4461F2"/>
</svg>
